<?xml version="1.0" encoding="UTF-8"?>
<svg xmlns="http://www.w3.org/2000/svg" xmlns:xlink="http://www.w3.org/1999/xlink" width="80px" height="80px" viewBox="0 0 80 80" version="1.1">
<g id="surface1">
<path style=" stroke:none;fill-rule:nonzero;fill:rgb(0%,0%,0%);fill-opacity:1;" d="M 0 40 L 0 80 L 80 80 L 80 0 L 0 0 Z M 40.5625 24.5625 C 40.96875 24.84375 41.40625 25.40625 41.59375 25.8125 C 41.96875 26.875 41.8125 27.1875 37.1875 35.15625 C 36.1875 36.875 35 38.96875 34.53125 39.84375 C 33.0625 42.5 31.40625 43.25 30.09375 41.78125 C 28.6875 40.25 28.46875 40.78125 35.3125 28.8125 C 38 24.09375 38.875 23.375 40.5625 24.5625 Z M 66.6875 24.84375 C 67.15625 25.28125 67.5 25.9375 67.5 26.40625 C 67.5 26.875 65.9375 29.90625 63.84375 33.53125 C 61.84375 37 60 40.21875 59.78125 40.6875 C 59.21875 41.78125 58.21875 42.5 57.25 42.5 C 56.3125 42.5 55 41.15625 55 40.1875 C 55 39.25 62.59375 25.78125 63.71875 24.75 C 64.6875 23.84375 65.65625 23.875 66.6875 24.84375 Z M 24.375 35.3125 C 25.5 36.4375 25.21875 37.375 22.1875 42.53125 C 21.9375 42.96875 20.625 45.25 19.28125 47.59375 C 16.84375 51.875 16.03125 52.8125 14.8125 52.8125 C 13.78125 52.8125 12.5 51.65625 12.5 50.6875 C 12.5 50.1875 13.5625 47.96875 15 45.5 C 16.375 43.09375 17.5 41.09375 17.5 41.0625 C 17.5 40.75 20.8125 35.375 21.1875 35.0625 C 21.9375 34.46875 23.65625 34.59375 24.375 35.3125 Z M 50.3125 35.6875 C 51.0625 36.9375 51 37.21875 49.03125 40.5625 C 48.1875 42 47.5 43.25 47.5 43.3125 C 47.5 43.40625 47 44.25 46.40625 45.1875 C 45.8125 46.125 45.3125 46.9375 45.3125 47.03125 C 45.3125 47.09375 44.625 48.34375 43.75 49.8125 C 42.46875 51.96875 42.03125 52.5 41.25 52.65625 C 39.96875 52.9375 39.125 52.59375 38.59375 51.59375 C 38 50.4375 38.21875 49.8125 40.53125 45.8125 C 41.625 43.9375 42.5 42.375 42.5 42.3125 C 42.5 42.21875 42.875 41.59375 43.3125 40.90625 C 43.75 40.1875 44.46875 38.96875 44.90625 38.1875 C 46.5 35.28125 47.09375 34.6875 48.46875 34.6875 C 49.53125 34.6875 49.78125 34.84375 50.3125 35.6875 Z M 50.3125 35.6875 "/>
</g>
</svg>
