<?xml version="1.0" encoding="UTF-8"?>
<svg xmlns="http://www.w3.org/2000/svg" xmlns:xlink="http://www.w3.org/1999/xlink" width="80px" height="80px" viewBox="0 0 86 80" version="1.1">
<g id="surface1">
<path style=" stroke:none;fill-rule:nonzero;fill:rgb(0%,0%,0%);fill-opacity:1;" d="M 39.910156 35.472656 C 36.785156 35.472656 34.53125 37.511719 34.53125 40.566406 C 34.53125 43.621094 37.070312 45.660156 40.191406 45.660156 C 42.078125 45.660156 43.742188 44.914062 44.773438 43.652344 L 42.609375 42.402344 C 42.039062 43.027344 41.167969 43.394531 40.191406 43.394531 C 38.835938 43.394531 37.683594 42.683594 37.257812 41.554688 L 45.1875 41.554688 C 45.25 41.238281 45.285156 40.910156 45.285156 40.5625 C 45.285156 37.511719 43.035156 35.472656 39.910156 35.472656 Z M 37.234375 39.574219 C 37.585938 38.445312 38.554688 37.734375 39.90625 37.734375 C 41.261719 37.734375 42.230469 38.445312 42.582031 39.574219 Z M 70.378906 35.472656 C 67.253906 35.472656 65.003906 37.511719 65.003906 40.566406 C 65.003906 43.621094 67.539062 45.660156 70.664062 45.660156 C 72.550781 45.660156 74.214844 44.914062 75.242188 43.652344 L 73.078125 42.402344 C 72.507812 43.027344 71.636719 43.394531 70.664062 43.394531 C 69.308594 43.394531 68.15625 42.683594 67.726562 41.554688 L 75.65625 41.554688 C 75.71875 41.238281 75.753906 40.910156 75.753906 40.5625 C 75.753906 37.511719 73.503906 35.472656 70.378906 35.472656 Z M 67.707031 39.574219 C 68.058594 38.445312 69.027344 37.734375 70.378906 37.734375 C 71.734375 37.734375 72.703125 38.445312 73.054688 39.574219 Z M 56.660156 40.566406 C 56.660156 42.265625 57.769531 43.394531 59.492188 43.394531 C 60.65625 43.394531 61.53125 42.867188 61.980469 42.003906 L 64.152344 43.257812 C 63.253906 44.757812 61.566406 45.660156 59.492188 45.660156 C 56.363281 45.660156 54.113281 43.621094 54.113281 40.566406 C 54.113281 37.511719 56.367188 35.472656 59.492188 35.472656 C 61.566406 35.472656 63.25 36.375 64.152344 37.875 L 61.980469 39.128906 C 61.53125 38.265625 60.65625 37.734375 59.492188 37.734375 C 57.773438 37.734375 56.660156 38.867188 56.660156 40.566406 Z M 80 32.359375 L 80 45.375 L 77.453125 45.375 L 77.453125 32.359375 Z M 10.457031 30.945312 L 20.910156 49.054688 L 0 49.054688 Z M 36.597656 32.359375 L 28.753906 45.941406 L 20.914062 32.359375 L 23.855469 32.359375 L 28.753906 40.847656 L 33.65625 32.359375 Z M 53.265625 35.753906 L 53.265625 38.496094 C 52.984375 38.414062 52.683594 38.359375 52.359375 38.359375 C 50.714844 38.359375 49.53125 39.492188 49.53125 41.1875 L 49.53125 45.375 L 46.984375 45.375 L 46.984375 35.753906 L 49.53125 35.753906 L 49.53125 38.359375 C 49.53125 36.921875 51.203125 35.753906 53.265625 35.753906 Z M 53.265625 35.753906 "/>
</g>
</svg>
